<?xml version="1.0" standalone="no"?><!DOCTYPE svg PUBLIC "-//W3C//DTD SVG 1.1//EN" "http://www.w3.org/Graphics/SVG/1.1/DTD/svg11.dtd"><svg height="1511" node-id="1" sillyvg="true" template-height="1511" template-width="1508" version="1.1" viewBox="0 0 1508 1511" width="1508" xmlns="http://www.w3.org/2000/svg" xmlns:xlink="http://www.w3.org/1999/xlink"><defs node-id="20"><clipPath id="clip-path" node-id="5"><path d="M 45.38 43.67 L 1554.61 43.67 L 1554.61 1556.34 L 45.38 1556.34 Z" fill="#000000" fill-rule="nonzero" id="SVGID" node-id="6" stroke="none" target-height="1512.67" target-width="1509.23" target-x="45.379997" target-y="43.670002"></path></clipPath></defs><g node-id="81"><g clip-path="url(#clip-path)" group-id="1" id="sillyvg_g_0" node-id="26"><path d="M 582.60 5.13 L 617.34 68.13 C 620.64 74.13 622.34 79.54 622.45 84.35 C 624.92 255.72 616.45 431.15 626.33 601.30 C 629.40 654.54 608.71 698.03 564.27 731.76 C 303.33 733.76 145.06 733.76 89.46 731.76 C 28.28 729.47 3.60 677.82 2.36 619.76 C -0.21 476.59 -0.68 307.04 0.95 111.10 C 1.66 37.58 39.39 5.31 113.26 4.08 C 269.60 1.49 426.05 1.82 582.60 5.08 Z M 434.15 485.06 C 431.97 483.72 430.44 481.55 429.91 479.05 C 429.38 476.55 429.89 473.94 431.33 471.83 C 468.69 416.97 494.43 355.05 506.97 289.88 C 508.20 283.58 512.63 279.07 517.37 279.30 L 541.52 280.58 C 549.88 281.03 555.28 280.63 557.75 279.34 C 599.01 258.41 603.30 232.26 570.61 200.88 C 566.40 196.93 560.87 194.67 555.10 194.54 L 420.22 190.48 C 415.30 190.35 411.35 186.40 411.22 181.48 C 410.29 121.76 384.32 105.19 333.29 131.76 C 328.49 134.43 325.33 139.29 324.83 144.76 L 320.24 182.49 C 319.60 187.57 315.31 191.41 310.19 191.49 L 177.25 194.85 C 171.46 194.79 165.84 196.79 161.38 200.49 C 131.54 226.49 132.83 250.94 165.26 273.83 C 170.07 277.01 175.73 278.67 181.50 278.58 L 398.01 278.41 C 403.62 278.37 408.93 280.99 412.32 285.46 C 415.60 289.75 416.39 295.44 414.41 300.46 L 373.50 402.19 C 372.70 404.12 370.94 405.47 368.87 405.75 C 366.68 406.04 364.49 405.30 362.92 403.75 C 317.78 361.31 289.22 370.54 277.23 431.43 C 276.46 434.96 278.29 440.43 282.17 446.06 L 300.51 472.86 C 301.79 474.86 302.06 477.33 301.25 479.56 C 300.35 482.09 298.58 484.22 296.25 485.56 C 254.51 510.29 209.01 528.04 161.55 538.10 C 155.99 539.15 151.23 542.73 148.68 547.79 C 122.94 602.45 165.44 623.43 212.68 613.03 C 264.65 601.52 313.37 580.67 358.84 550.47 C 363.22 547.48 369.00 547.55 373.31 550.64 C 417.68 580.68 467.44 601.87 519.84 613.06 C 570.09 623.81 614.17 595.06 577.49 541.30 C 574.23 536.66 569.19 533.59 563.57 532.84 C 517.63 525.86 473.60 509.61 434.15 485.06 Z M 434.15 485.06" fill="#6e80d5" fill-rule="nonzero" group-id="1,9" node-id="30" stroke="none" target-height="732.27325" target-width="630.07336" target-x="-0.6766624" target-y="1.4866728"></path><path d="M 582.60 5.13 C 676.05 -15.49 731.41 26.64 731.60 120.62 C 731.95 291.40 731.89 461.48 731.42 630.87 C 731.07 728.37 649.42 739.30 564.28 731.71 C 608.71 697.97 629.40 654.48 626.34 601.25 C 616.46 431.10 624.93 255.67 622.46 84.30 C 622.36 79.47 620.66 74.06 617.35 68.08 Z M 582.60 5.13" fill="#5169cc" fill-rule="nonzero" group-id="1,10" node-id="35" stroke="none" target-height="754.79" target-width="167.67334" target-x="564.28" target-y="-15.489994"></path></g></g><g node-id="82"><path d="M 1393.64 457.02 C 1367.80 531.84 1335.29 604.19 1296.49 673.18 C 1261.74 654.45 1227.36 635.05 1193.35 615.00 C 1134.11 580.09 1164.61 500.22 1224.56 516.09 C 1237.15 519.49 1240.26 515.49 1233.90 504.09 C 1153.75 361.50 1034.92 269.35 877.40 227.63 C 871.92 226.18 867.00 223.11 863.29 218.82 C 828.74 177.33 836.74 146.25 887.27 125.58 C 892.53 123.40 898.38 123.09 903.84 124.69 C 1095.92 175.47 1241.67 294.01 1341.10 480.32 C 1342.03 482.15 1343.88 483.34 1345.93 483.41 C 1347.98 483.48 1349.91 482.43 1350.97 480.67 C 1358.02 469.49 1372.24 461.61 1393.64 457.04 Z M 1393.64 457.02" fill="#28d1b3" fill-rule="nonzero" group-id="2" node-id="41" stroke="none" target-height="550.095" target-width="564.8968" target-x="828.74335" target-y="123.08501"></path></g><g node-id="83"><path d="M 1393.64 457.02 C 1427.03 453.60 1447.07 470.53 1453.76 507.80 C 1454.77 513.56 1453.90 519.49 1451.29 524.72 C 1416.91 596.84 1381.65 719.72 1296.49 673.18 C 1335.29 604.19 1367.80 531.84 1393.64 457.02 Z M 1393.64 457.02" fill="#22b69f" fill-rule="nonzero" group-id="3" node-id="46" stroke="none" target-height="266.12003" target-width="158.27551" target-x="1296.49" target-y="453.6"></path></g><g node-id="84"><g clip-path="url(#clip-path)" group-id="4" id="sillyvg_g_1" node-id="49"><path d="M 1338.98 783.02 C 1379.31 807.35 1399.76 843.37 1400.34 891.10 C 1402.46 1067.77 1402.34 1244.49 1399.98 1421.27 C 1399.76 1443.37 1383.76 1471.52 1351.98 1505.72 C 1106.91 1511.95 939.82 1511.83 850.73 1505.37 C 776.68 1499.91 777.20 1395.71 776.85 1345.11 C 775.67 1210.51 776.73 1075.92 780.02 941.35 C 782.32 848.08 780.56 782.14 889.51 781.08 C 1039.98 779.78 1189.79 780.43 1338.93 783.02 Z M 1200.05 1028.63 L 1301.78 1026.86 C 1307.36 1026.84 1312.57 1024.07 1315.71 1019.46 C 1352.91 961.98 1320.82 929.37 1259.64 930.07 C 1174.79 931.12 1089.93 931.59 1005.04 931.48 C 966.51 931.35 954.11 956.85 967.85 1008.00 C 970.67 1018.45 979.57 1025.77 989.71 1026.00 L 1084.04 1028.47 C 1088.94 1028.47 1092.94 1032.39 1093.04 1037.29 C 1092.92 1132.21 1094.04 1227.12 1096.39 1322.03 C 1097.10 1353.99 1121.20 1363.57 1168.67 1350.77 C 1181.34 1347.23 1190.12 1335.71 1190.18 1322.56 L 1191.24 1037.63 C 1191.24 1032.73 1195.16 1028.73 1200.06 1028.63 Z M 1200.05 1028.63" fill="#f1eff2" fill-rule="nonzero" group-id="4,11" node-id="53" stroke="none" target-height="732.1667" target-width="626.79" target-x="775.67" target-y="779.77997"></path><path d="M 1338.98 783.02 C 1439.98 775.80 1507.36 780.38 1507.19 898.02 C 1507.19 1043.88 1507.54 1189.75 1508.24 1335.63 C 1508.78 1451.99 1493.78 1533.09 1352.03 1505.76 C 1383.77 1471.56 1399.77 1443.41 1400.03 1421.31 C 1402.40 1244.52 1402.52 1067.80 1400.39 891.14 C 1399.81 843.42 1379.36 807.39 1339.03 783.06 Z M 1338.98 783.02" fill="#ddebf0" fill-rule="nonzero" group-id="4,12" node-id="58" stroke="none" target-height="757.28986" target-width="169.79993" target-x="1338.98" target-y="775.8"></path></g></g><g node-id="85"><path d="M 323.61 993.71 C 262.37 938.23 192.72 899.38 114.67 877.17 C 145.35 778.44 246.73 853.90 311.44 892.17 C 358.69 920.03 366.62 955.65 323.61 993.72 Z M 323.61 993.71" fill="#22b69f" fill-rule="nonzero" group-id="5" node-id="64" stroke="none" target-height="215.27997" target-width="251.95001" target-x="114.670006" target-y="778.44006"></path></g><g node-id="86"><path d="M 114.67 877.17 C 192.73 899.39 262.38 938.24 323.61 993.71 L 281.61 1001.48 C 279.63 1001.81 277.93 1003.07 277.03 1004.87 C 276.14 1006.64 276.21 1008.74 277.20 1010.46 C 352.53 1144.22 462.79 1233.08 607.96 1277.05 C 648.69 1289.39 684.13 1314.05 659.10 1359.39 C 645.10 1384.77 624.18 1393.35 596.33 1385.12 C 398.40 1325.99 255.71 1207.87 168.25 1030.74 C 167.34 1028.91 165.62 1027.61 163.61 1027.23 C 161.60 1026.84 159.53 1027.42 158.02 1028.80 C 111.01 1070.99 77.39 1063.29 57.17 1005.70 C 55.25 1000.27 55.61 994.29 58.17 989.13 Z M 114.67 877.17" fill="#28d1b3" fill-rule="nonzero" group-id="6" node-id="69" stroke="none" target-height="516.17664" target-width="628.88477" target-x="55.24527" target-y="877.17004"></path></g><g node-id="87"><path d="M 434.15 485.06 C 473.60 509.61 517.63 525.86 563.57 532.84 C 569.19 533.58 574.24 536.65 577.49 541.30 C 614.17 595.08 570.09 623.81 519.84 613.06 C 467.44 601.87 417.70 580.67 373.33 550.64 C 369.02 547.55 363.24 547.48 358.86 550.47 C 313.38 580.67 264.66 601.53 212.70 613.06 C 165.46 623.46 122.96 602.48 148.70 547.82 C 151.25 542.76 156.01 539.18 161.57 538.13 C 209.03 528.07 254.53 510.32 296.27 485.58 C 298.60 484.24 300.37 482.11 301.27 479.58 C 302.08 477.35 301.81 474.88 300.53 472.88 L 282.19 446.08 C 278.31 440.44 276.48 434.98 277.25 431.45 C 289.25 370.55 317.81 361.32 362.94 403.77 C 364.50 405.32 366.70 406.06 368.89 405.77 C 370.96 405.49 372.72 404.14 373.52 402.21 L 414.43 300.48 C 416.41 295.46 415.61 289.77 412.34 285.48 C 408.95 281.01 403.64 278.39 398.03 278.43 L 181.50 278.58 C 175.73 278.67 170.08 277.01 165.27 273.82 C 132.84 250.91 131.54 226.46 161.39 200.48 C 165.85 196.78 171.47 194.78 177.26 194.84 L 310.20 191.48 C 315.32 191.40 319.61 187.56 320.25 182.48 L 324.84 144.78 C 325.34 139.31 328.50 134.45 333.30 131.78 C 384.33 105.20 410.31 121.77 411.23 181.50 C 411.38 186.41 415.32 190.35 420.23 190.50 L 555.11 194.56 C 560.89 194.68 566.41 196.94 570.62 200.90 C 603.29 232.29 599.00 258.44 557.76 279.36 C 555.29 280.65 549.89 281.05 541.53 280.60 L 517.38 279.36 C 512.64 279.13 508.21 283.64 506.98 289.94 C 494.44 355.13 468.70 417.07 431.34 471.94 C 429.90 474.05 429.39 476.66 429.92 479.16 C 430.45 481.66 431.98 483.83 434.16 485.17 Z M 434.15 485.06" fill="#f1eff2" fill-rule="nonzero" group-id="7" node-id="74" stroke="none" target-height="518.61" target-width="491.21005" target-x="122.96" target-y="105.2"></path></g><path d="M 1191.23 1037.58 L 1190.17 1322.58 C 1190.11 1335.73 1181.33 1347.25 1168.66 1350.79 C 1121.18 1363.59 1097.09 1354.01 1096.38 1322.05 C 1094.03 1227.15 1092.92 1132.24 1093.03 1037.31 C 1092.93 1032.41 1088.93 1028.49 1084.03 1028.49 L 989.70 1026.02 C 979.56 1025.81 970.70 1018.49 967.84 1008.02 C 954.08 956.89 966.48 931.38 1005.03 931.50 C 1089.92 931.60 1174.78 931.13 1259.63 930.09 C 1320.81 929.39 1352.90 962.00 1315.70 1019.48 C 1312.56 1024.09 1307.35 1026.86 1301.77 1026.88 L 1200.04 1028.65 C 1195.14 1028.75 1191.22 1032.75 1191.22 1037.65 Z M 1191.23 1037.58" fill="#7a6d79" fill-rule="nonzero" group-id="8" node-id="79" stroke="none" target-height="434.19995" target-width="398.8199" target-x="954.08" target-y="929.39"></path></svg>